<svg width="512" height="512" viewBox="0 0 512 512" fill="none" xmlns="http://www.w3.org/2000/svg">
<path d="M467 120H405.959C415.397 107.456 421 91.871 421 75C421 33.645 387.355 0 346 0C321.089 0 302.72 8.925 288.191 28.087C276.036 44.119 267.148 66.503 256 94.785C244.852 66.502 235.964 44.119 223.809 28.087C209.28 8.925 190.911 0 166 0C124.645 0 91 33.645 91 75C91 91.871 96.603 107.456 106.041 120H45C20.187 120 0 140.187 0 165V195C0 214.555 12.541 231.228 30 237.42V467C30 491.813 50.187 512 75 512H437C461.813 512 482 491.813 482 467V237.42C499.459 231.228 512 214.555 512 195V165C512 140.187 491.813 120 467 120ZM283.534 106.74C306.513 48.442 315.249 30 346 30C370.813 30 391 50.187 391 75C391 99.813 370.813 120 346 120H278.287C280.125 115.385 281.878 110.942 283.534 106.74ZM166 30C196.751 30 205.487 48.442 228.466 106.74C230.122 110.942 231.875 115.385 233.713 120H166C141.187 120 121 99.813 121 75C121 50.187 141.187 30 166 30ZM196 482H75C66.729 482 60 475.271 60 467V240H196V482ZM196 210H45C36.729 210 30 203.271 30 195V165C30 156.729 36.729 150 45 150H196V210ZM286 482H226V150H286V482ZM452 467C452 475.271 445.271 482 437 482H316V240H452V467ZM482 195C482 203.271 475.271 210 467 210H316V150H467C475.271 150 482 156.729 482 165V195Z" fill="url(#paint0_linear_969337_63)"/>
<defs>
<linearGradient id="paint0_linear_969337_63" x1="-115.151" y1="91.0052" x2="554.137" y2="521.199" gradientUnits="userSpaceOnUse">
<stop stop-color="#3BAE89"/>
<stop offset="1" stop-color="#B3E5D5"/>
</linearGradient>
</defs>
</svg>
