<svg width="90" height="37" viewBox="0 0 90 37" fill="none" xmlns="http://www.w3.org/2000/svg">
<path d="M42.5437 5.99709V14.9797H48.0833C49.4033 14.9797 50.4945 14.5353 51.3569 13.6487C52.2435 12.7643 52.6879 11.7083 52.6879 10.4873C52.6879 9.29049 52.2435 8.24769 51.3569 7.35889C50.4945 6.45029 49.4033 5.99489 48.0833 5.99489H42.5437V5.99709ZM42.5437 18.1411V28.5603H39.2349V2.83569H48.0129C50.2415 2.83569 52.1335 3.57709 53.6933 5.06209C55.2773 6.54709 56.0693 8.35549 56.0693 10.4873C56.0693 12.6675 55.2773 14.4891 53.6933 15.9477C52.1599 17.4107 50.2635 18.1389 48.0107 18.1389H42.5437V18.1411ZM59.4133 23.1725C59.4133 24.0349 59.7785 24.7521 60.5111 25.3285C61.2415 25.9005 62.0995 26.1887 63.0807 26.1887C64.4733 26.1887 65.7119 25.6739 66.8031 24.6465C67.8965 23.6147 68.4399 22.4047 68.4399 21.0165C67.4081 20.2025 65.9693 19.7955 64.1235 19.7955C62.7815 19.7955 61.6595 20.1211 60.7619 20.7679C59.8621 21.4147 59.4133 22.2133 59.4133 23.1725ZM63.6945 10.3795C66.1409 10.3795 68.0703 11.0329 69.4871 12.3375C70.8995 13.6443 71.6079 15.4351 71.6079 17.7099V28.5603H68.4421V26.1183H68.2991C66.9307 28.1291 65.1091 29.1367 62.8299 29.1367C60.8895 29.1367 59.2637 28.5603 57.9569 27.4119C56.6501 26.2613 55.9967 24.8247 55.9967 23.0999C55.9967 21.2783 56.6853 19.8307 58.0647 18.7527C59.4441 17.6747 61.2833 17.1357 63.5867 17.1357C65.5491 17.1357 67.1705 17.4943 68.4399 18.2137V17.4569C68.4399 16.3085 67.9845 15.3317 67.0737 14.5309C66.1961 13.7412 65.0531 13.3115 63.8727 13.3275C62.0247 13.3275 60.5639 14.1041 59.4837 15.6639L56.5709 13.8291C58.1769 11.5301 60.5529 10.3795 63.6945 10.3795ZM89.771 10.9559L78.7271 36.3219H75.3105L79.4113 27.4471L72.1469 10.9559H75.7439L80.9953 23.6037H81.0657L86.174 10.9537L89.771 10.9559Z" fill="#3C4043"/>
<path d="M29.172 15.8948C29.172 14.8542 29.084 13.8488 28.9168 12.8896H14.96V18.5832H22.9548C22.6237 20.4215 21.5555 22.0445 19.998 23.0756V26.7716H24.7698C27.5638 24.1976 29.172 20.3916 29.172 15.8948Z" fill="#4285F4"/>
<path d="M14.9603 30.34C18.9555 30.34 22.3171 29.031 24.7701 26.7738L19.9983 23.0756C18.6717 23.9688 16.9623 24.4902 14.9603 24.4902C11.1015 24.4902 7.82348 21.8899 6.65308 18.3875H1.73828V22.1956C4.25268 27.1909 9.36778 30.3426 14.9603 30.3423" fill="#34A853"/>
<path d="M6.65295 18.3875C6.03555 16.5519 6.03555 14.5647 6.65295 12.7291V8.9209H1.73815C0.69915 10.9783 0.15875 13.2513 0.16065 15.5561C0.16065 17.9431 0.73275 20.1981 1.73815 22.1935L6.65295 18.3853V18.3875Z" fill="#FABB05"/>
<path d="M14.96 6.62617C17.1424 6.62617 19.096 7.37417 20.636 8.84377V8.84597L24.86 4.62637C22.2992 2.24157 18.9552 0.776367 14.9622 0.776367C9.37033 0.775667 4.25533 3.92637 1.74023 8.92077L6.65504 12.729C7.82544 9.22657 11.1034 6.62617 14.9622 6.62617" fill="#E94235"/>
</svg>
