<svg width="78" height="48" viewBox="0 0 78 48" fill="none" xmlns="http://www.w3.org/2000/svg">
<path fill-rule="evenodd" clip-rule="evenodd" d="M76.5288 38.6561V37.7383H76.289L76.0137 38.3697L75.7378 37.7383H75.498V38.6561H75.6675V37.9636L75.9257 38.5608H76.1011L76.36 37.9623V38.6561H76.5288ZM75.0111 38.6561V37.8946H75.318V37.7396H74.5361V37.8946H74.843V38.6561H75.0111Z" fill="#F79E1B"/>
<path fill-rule="evenodd" clip-rule="evenodd" d="M28.6523 42.5949H49.3481V5.4043H28.6523V42.5949Z" fill="#FF5F00"/>
<path fill-rule="evenodd" clip-rule="evenodd" d="M77.2675 24.0002C77.2675 37.0629 66.6791 47.6519 53.6171 47.6519C48.0996 47.6519 43.0229 45.7623 39 42.5955C44.5011 38.2645 48.0339 31.5447 48.0339 24.0002C48.0339 16.4551 44.5011 9.7353 39 5.4043C43.0229 2.2375 48.0996 0.3479 53.6171 0.3479C66.6791 0.3479 77.2675 10.9369 77.2675 24.0002Z" fill="#F79E1B"/>
<path fill-rule="evenodd" clip-rule="evenodd" d="M29.966 24.0002C29.966 16.4551 33.4988 9.7353 38.9999 5.4043C34.977 2.2375 29.9003 0.3479 24.3828 0.3479C11.3208 0.3479 0.732422 10.9369 0.732422 24.0002C0.732422 37.0629 11.3208 47.6519 24.3828 47.6519C29.9003 47.6519 34.977 45.7623 38.9999 42.5955C33.4988 38.2645 29.966 31.5447 29.966 24.0002Z" fill="#EB001B"/>
</svg>
