<svg width="82" height="26" viewBox="0 0 82 26" fill="none" xmlns="http://www.w3.org/2000/svg">
<path fill-rule="evenodd" clip-rule="evenodd" d="M67.6666 17.9376L71.3238 8.0626L73.3809 17.9376H67.6666ZM81.952 25.8376L76.8086 0.162598H69.7383C67.3525 0.162598 66.7723 2.076 66.7723 2.076L57.1904 25.8376H63.8868L65.2269 22.0245H73.3947L74.148 25.8376H81.952Z" fill="#182E66"/>
<path fill-rule="evenodd" clip-rule="evenodd" d="M58.1864 6.5712L59.095 1.2441C59.095 1.2441 56.2894 0.162598 53.3646 0.162598C50.2029 0.162598 42.6953 1.5639 42.6953 8.3739C42.6953 14.7826 51.5069 14.8622 51.5069 18.2267C51.5069 21.5913 43.6032 20.9902 40.9953 18.8677L40.0474 24.4363C40.0474 24.4363 42.8917 25.8376 47.2395 25.8376C51.5867 25.8376 58.1465 23.5545 58.1465 17.3456C58.1465 10.8965 49.255 10.2961 49.255 7.4922C49.255 4.6883 55.46 5.0485 58.1864 6.5712Z" fill="#182E66"/>
<path fill-rule="evenodd" clip-rule="evenodd" d="M35.6517 25.8376H28.6191L33.0144 0.162598H40.0477L35.6517 25.8376Z" fill="#182E66"/>
<path fill-rule="evenodd" clip-rule="evenodd" d="M23.3111 0.162598L16.9215 17.8214L16.1661 14.0186L16.1668 14.02L13.9112 2.475C13.9112 2.475 13.6392 0.162598 10.7322 0.162598H0.170664L0.0473633 0.596697C0.0473633 0.596697 3.27796 1.267 7.05676 3.5327L12.8791 25.8376H19.8615L30.5236 0.162598H23.3111Z" fill="#182E66"/>
<path fill-rule="evenodd" clip-rule="evenodd" d="M15.2855 13.9876L13.1532 2.4696C13.1532 2.4696 12.8961 0.162598 10.148 0.162598H0.163864L0.0473633 0.595598C0.0473633 0.595598 4.84646 1.6433 9.45016 5.5653C13.8503 9.3146 15.2855 13.9876 15.2855 13.9876Z" fill="#182E66"/>
</svg>
