<svg width="323" height="147" viewBox="0 0 323 147" fill="none" xmlns="http://www.w3.org/2000/svg">
<path fill-rule="evenodd" clip-rule="evenodd" d="M204.73 78.0798C208.44 74.3998 210.3 69.4498 210.3 63.3598C210.3 56.9698 208.45 51.9298 204.82 48.2898C201.11 44.6598 195.81 42.8198 188.9 42.8198H167.55V102.52H177.51V83.6398H189.59C195.93 83.6398 201.02 81.7998 204.73 78.0798ZM189.76 52.4998C196.7 52.4998 200.2 56.1298 200.2 63.3598C200.2 66.7298 199.25 69.3598 197.4 71.2398C195.55 73.1298 192.91 74.0398 189.59 74.0398H177.47V52.4898H189.77L189.76 52.4998ZM110.17 42.9498H100.2V102.65H110.17V42.9498ZM317.75 103.62C319.47 103.62 321.16 103.4 322.75 103.01H322.8V94.7698C321.97 94.8898 321.13 94.9498 320.3 94.9498C317.8 94.9498 316.16 94.3798 315.38 93.3298C314.73 92.4998 314.39 90.7898 314.39 88.1598V63.9798H322.97V55.9698H314.39V43.0498H304.72V88.7698C304.72 94.2498 305.41 97.9198 306.83 99.8998C308.6 102.4 312.22 103.63 317.74 103.63L317.75 103.62ZM148.01 102.74H157.8V72.4298C157.8 67.3498 156.38 63.3998 153.62 60.5998C150.86 57.7498 147.15 56.0898 142.49 56.0898C131.75 56.0898 119.84 58.7598 119.84 58.7598V102.73H129.63V65.8098C133.04 65.0598 137.74 64.3598 140.67 64.5798C145.42 64.9798 148 68.2198 148 74.2198V102.73L148.01 102.74ZM256.45 78.9998C256.45 86.1798 254.47 91.9698 250.5 96.3498C246.53 100.73 241.39 102.92 235.1 102.92C228.81 102.92 223.62 100.73 219.7 96.3498C215.73 91.9698 213.75 86.1898 213.75 79.0098C213.75 71.8298 215.73 66.0498 219.7 61.7098C223.67 57.3798 228.8 55.1798 235.1 55.1798C241.4 55.1798 246.62 57.3698 250.59 61.7098C254.47 66.0898 256.45 71.8298 256.45 79.0098V78.9998ZM246.36 79.0398C246.36 74.5298 245.33 70.9798 243.3 68.3498C241.23 65.7198 238.51 64.4098 235.1 64.4098C231.69 64.4098 228.97 65.7298 226.91 68.3898C224.84 71.0598 223.85 74.6098 223.85 79.0398C223.85 83.4698 224.88 87.0998 226.91 89.7298C228.98 92.3598 231.7 93.6698 235.1 93.6698C238.5 93.6698 241.23 92.3498 243.3 89.7298C245.33 87.0998 246.36 83.5498 246.36 79.0398ZM293.77 98.4098C297.22 95.5198 298.95 91.7998 298.95 87.2898C298.95 80.2798 294.68 75.9898 286.09 74.3698C282.47 73.7098 278.8 73.0498 275.09 72.4798C272.46 71.7798 271.17 70.4698 271.17 68.5798C271.17 65.2998 274.02 63.6798 279.75 63.6798C284.23 63.6798 288.25 65.2598 291.74 68.4098L297.56 62.1898C292.73 57.6298 286.91 55.3598 280.05 55.3598C274.4 55.3598 269.87 56.7198 266.46 59.4798C263.05 62.2298 261.37 65.6998 261.37 69.7698C261.37 73.8398 262.75 76.8198 265.55 78.8398C267.97 80.4998 271.93 81.7298 277.55 82.5598C282.21 83.2998 285.06 83.8698 286.13 84.2698C287.98 84.9698 288.89 86.2798 288.89 88.1698C288.89 89.7898 288.07 91.1898 286.47 92.2898C284.87 93.3898 282.72 93.9498 279.96 93.9498C275.04 93.9498 270.72 92.1098 267.01 88.4298L259.59 94.7398C264.42 100.09 271.24 102.75 280.08 102.75C285.73 102.75 290.3 101.31 293.75 98.4198L293.77 98.4098Z" fill="#1D1D1D"/>
<path fill-rule="evenodd" clip-rule="evenodd" d="M35.3702 73.3C35.3702 73.3 27.5502 76.33 17.9002 76.33C8.25018 76.33 0.430176 73.3 0.430176 73.3C0.430176 73.3 8.25018 70.27 17.9002 70.27C27.5502 70.27 35.3702 73.3 35.3702 73.3Z" fill="#FFCC05"/>
<path fill-rule="evenodd" clip-rule="evenodd" d="M59.52 28.7698C59.52 28.7698 52.59 24.0898 47.19 16.2398C41.8 8.37982 39.98 0.319824 39.98 0.319824C39.98 0.319824 46.91 4.98982 52.31 12.8498C57.71 20.7098 59.52 28.7698 59.52 28.7698Z" fill="#FFCC05"/>
<path fill-rule="evenodd" clip-rule="evenodd" d="M41.83 47.9801C41.83 47.9801 33.48 47.0501 24.96 42.6001C16.44 38.1501 10.98 31.8701 10.98 31.8701C10.98 31.8701 19.33 32.8001 27.85 37.2501C36.37 41.7001 41.83 47.9801 41.83 47.9801Z" fill="#FFCC05"/>
<path fill-rule="evenodd" clip-rule="evenodd" d="M59.52 117.67C59.52 117.67 52.59 122.35 47.19 130.2C41.8 138.05 39.98 146.12 39.98 146.12C39.98 146.12 46.91 141.45 52.31 133.59C57.71 125.74 59.52 117.67 59.52 117.67Z" fill="#FFCC05"/>
<path fill-rule="evenodd" clip-rule="evenodd" d="M41.83 98.46C41.83 98.46 33.48 99.39 24.96 103.84C16.44 108.29 10.98 114.57 10.98 114.57C10.98 114.57 19.33 113.64 27.85 109.19C36.37 104.74 41.83 98.46 41.83 98.46Z" fill="#FFCC05"/>
<path fill-rule="evenodd" clip-rule="evenodd" d="M62.1099 87.8902C68.3999 104 78.5099 115.55 96.5699 118.29C94.5099 118.57 92.4199 118.74 90.2799 118.75C64.6899 118.86 43.8399 98.5802 43.7299 73.4502C43.6199 48.3202 64.2699 27.8502 89.8599 27.7402C92.1399 27.7302 94.3799 27.8902 96.5799 28.1902C75.8899 30.7702 62.0899 46.8302 59.3599 67.2702C58.4899 79.7302 72.9999 83.9402 72.9999 83.9402C72.9999 83.9402 67.0599 87.8202 62.1099 87.9002V87.8902Z" fill="#FFCC05"/>
</svg>
