<svg width="485" height="78" viewBox="0 0 485 78" fill="none" xmlns="http://www.w3.org/2000/svg">
<path fill-rule="evenodd" clip-rule="evenodd" d="M92.8538 27.2652C85.9738 31.7852 83.1838 39.7552 86.6338 45.0152C90.0838 50.2752 98.5138 50.8852 105.394 46.3752C112.274 41.8552 115.064 33.8852 111.614 28.6252C108.164 23.3652 99.7338 22.7552 92.8538 27.2652ZM185.104 31.5752C185.104 33.6452 184.764 35.5052 184.084 37.1652C183.414 38.8252 182.424 40.2352 181.164 41.4152C179.904 42.5852 178.344 43.4852 176.504 44.1252C174.674 44.7552 172.474 45.0852 169.914 45.0852H165.234V59.9552C165.234 60.1152 165.184 60.2752 165.094 60.4052C164.994 60.5352 164.844 60.6352 164.644 60.7152C164.434 60.7952 164.164 60.8452 163.804 60.9052C163.454 60.9552 163.024 60.9952 162.484 60.9952C161.954 60.9952 161.514 60.9652 161.154 60.9052C160.804 60.8552 160.524 60.7952 160.314 60.7152C160.094 60.6352 159.944 60.5452 159.864 60.4052C159.774 60.2752 159.734 60.1252 159.734 59.9552V21.8552C159.734 21.0052 159.954 20.3952 160.394 20.0352C160.844 19.6752 161.344 19.4952 161.894 19.4952H170.744C171.634 19.4952 172.484 19.5252 173.304 19.6052C174.134 19.6852 175.104 19.8452 176.214 20.0852C177.334 20.3352 178.464 20.7952 179.634 21.4552C180.784 22.1352 181.774 22.9452 182.584 23.9252C183.394 24.9052 184.014 26.0352 184.444 27.3252C184.884 28.5952 185.104 30.0252 185.104 31.5752ZM179.324 32.0152C179.324 30.3352 179.004 28.9352 178.374 27.8152C177.754 26.6852 176.974 25.8452 176.044 25.2852C175.114 24.7252 174.174 24.3852 173.174 24.2352C172.184 24.0852 171.224 24.0052 170.284 24.0052H165.204V40.5652H170.154C171.814 40.5652 173.194 40.3552 174.284 39.9352C175.384 39.5052 176.304 38.9252 177.054 38.1552C177.794 37.4052 178.364 36.4952 178.744 35.4452C179.134 34.4052 179.324 33.2652 179.324 32.0152ZM215.924 45.2952C215.924 47.6352 215.624 49.7952 214.994 51.7552C214.384 53.7252 213.454 55.4252 212.234 56.8552C211.014 58.2852 209.474 59.3952 207.634 60.1852C205.794 60.9852 203.654 61.3852 201.244 61.3852C198.884 61.3852 196.824 61.0252 195.064 60.3252C193.314 59.6252 191.844 58.6052 190.674 57.2652C189.504 55.9252 188.634 54.2952 188.064 52.3752C187.484 50.4652 187.204 48.2852 187.204 45.8752C187.204 43.5352 187.504 41.3752 188.104 39.4152C188.714 37.4452 189.634 35.7452 190.854 34.3152C192.074 32.8852 193.614 31.7852 195.444 31.0052C197.274 30.2052 199.414 29.8152 201.854 29.8152C204.214 29.8152 206.274 30.1652 208.034 30.8752C209.784 31.5752 211.254 32.5952 212.424 33.9352C213.604 35.2752 214.474 36.9052 215.064 38.8152C215.644 40.7352 215.924 42.8852 215.924 45.2952ZM210.384 45.6452C210.384 44.0952 210.234 42.6252 209.944 41.2452C209.664 39.8652 209.184 38.6552 208.524 37.6052C207.864 36.5552 206.964 35.7452 205.844 35.1352C204.714 34.5252 203.304 34.2152 201.624 34.2152C200.064 34.2152 198.734 34.4952 197.614 35.0552C196.504 35.5952 195.574 36.3852 194.854 37.3952C194.124 38.4052 193.594 39.6052 193.244 40.9952C192.894 42.3752 192.724 43.8852 192.724 45.5252C192.724 47.0952 192.864 48.5752 193.144 49.9552C193.424 51.3352 193.904 52.5452 194.584 53.5752C195.244 54.6052 196.154 55.4252 197.274 56.0352C198.404 56.6452 199.814 56.9352 201.494 56.9352C203.034 56.9352 204.364 56.6652 205.484 56.1052C206.614 55.5452 207.544 54.7752 208.264 53.7752C208.994 52.7852 209.524 51.5852 209.864 50.2052C210.204 48.8252 210.384 47.3152 210.384 45.6452ZM242.804 55.6052C242.804 55.9752 242.794 56.2852 242.774 56.5552C242.754 56.8152 242.704 57.0452 242.664 57.2152C242.614 57.4052 242.544 57.5652 242.464 57.6952C242.384 57.8352 242.224 58.0452 241.954 58.3052C241.694 58.5652 241.234 58.9052 240.604 59.2952C239.964 59.6852 239.244 60.0352 238.444 60.3452C237.644 60.6652 236.774 60.9152 235.844 61.0952C234.904 61.2952 233.934 61.3852 232.934 61.3852C230.874 61.3852 229.044 61.0352 227.454 60.3652C225.854 59.6752 224.524 58.6852 223.444 57.3852C222.364 56.0752 221.544 54.4652 220.984 52.5652C220.424 50.6552 220.144 48.4552 220.144 45.9752C220.144 43.1452 220.484 40.7152 221.174 38.6752C221.864 36.6452 222.804 34.9852 224.014 33.6852C225.214 32.3852 226.624 31.4152 228.254 30.7952C229.884 30.1652 231.644 29.8452 233.534 29.8452C234.454 29.8452 235.344 29.9352 236.204 30.1052C237.064 30.2652 237.864 30.4952 238.574 30.7652C239.294 31.0352 239.944 31.3652 240.504 31.7252C241.074 32.0852 241.484 32.3852 241.734 32.6552C241.994 32.9052 242.174 33.1152 242.254 33.2652C242.354 33.4052 242.434 33.5852 242.494 33.7852C242.564 33.9952 242.604 34.2052 242.624 34.4752C242.644 34.7252 242.654 35.0552 242.654 35.4352C242.654 36.2652 242.554 36.8452 242.374 37.1652C242.174 37.5052 241.954 37.6652 241.664 37.6652C241.344 37.6652 240.974 37.4952 240.564 37.1452C240.154 36.7852 239.624 36.4052 238.984 35.9752C238.354 35.5552 237.584 35.1552 236.674 34.8052C235.774 34.4452 234.704 34.2752 233.464 34.2752C230.934 34.2752 228.994 35.2552 227.644 37.1952C226.294 39.1452 225.614 41.9652 225.614 45.6752C225.614 47.5252 225.784 49.1552 226.134 50.5452C226.484 51.9352 227.004 53.1052 227.684 54.0452C228.374 54.9852 229.194 55.6752 230.194 56.1352C231.184 56.5952 232.314 56.8252 233.594 56.8252C234.804 56.8252 235.874 56.6252 236.784 56.2452C237.694 55.8652 238.494 55.4352 239.154 54.9852C239.834 54.5252 240.394 54.1152 240.854 53.7452C241.314 53.3752 241.664 53.1852 241.924 53.1852C242.064 53.1852 242.194 53.2252 242.304 53.3052C242.414 53.3952 242.504 53.5352 242.574 53.7452C242.654 53.9552 242.694 54.2052 242.724 54.5052C242.784 54.8152 242.804 55.1752 242.804 55.6052ZM267.404 58.5452C267.404 58.9452 267.374 59.2952 267.304 59.5752C267.234 59.8652 267.164 60.0952 267.084 60.2852C266.994 60.4552 266.874 60.5952 266.724 60.6652C266.584 60.7452 266.424 60.7752 266.244 60.7752H248.564C248.114 60.7752 247.754 60.6252 247.464 60.3252C247.184 60.0352 247.044 59.5252 247.044 58.8252V57.7452C247.044 57.4352 247.064 57.1752 247.114 56.9352C247.154 56.7052 247.214 56.4652 247.304 56.2352C247.394 55.9952 247.514 55.7552 247.654 55.4852C247.804 55.2252 247.994 54.9152 248.204 54.5852L260.874 34.8552H248.584C248.244 34.8552 247.974 34.6852 247.774 34.3352C247.564 33.9852 247.464 33.4052 247.464 32.6252C247.464 32.2452 247.484 31.9052 247.534 31.6252C247.574 31.3352 247.644 31.1052 247.744 30.9152C247.844 30.7452 247.954 30.6052 248.094 30.5352C248.234 30.4552 248.404 30.4252 248.584 30.4252H265.054C265.294 30.4252 265.504 30.4552 265.674 30.5252C265.864 30.5952 266.014 30.6852 266.144 30.8452C266.264 30.9952 266.374 31.1852 266.444 31.4252C266.514 31.6552 266.554 31.9552 266.554 32.3152V33.3252C266.554 33.6352 266.534 33.9052 266.484 34.1652C266.444 34.4152 266.374 34.6652 266.284 34.9052C266.204 35.1552 266.084 35.4152 265.934 35.6852C265.784 35.9652 265.604 36.2752 265.394 36.6152L252.794 56.3452H266.254C266.424 56.3452 266.584 56.3752 266.724 56.4552C266.864 56.5352 266.974 56.6552 267.074 56.8252C267.174 56.9852 267.244 57.2152 267.314 57.5152C267.374 57.7952 267.404 58.1452 267.404 58.5452ZM288.304 57.8652C288.304 58.4852 288.264 58.9752 288.184 59.3352C288.094 59.6952 287.964 59.9652 287.794 60.1352C287.634 60.3052 287.374 60.4752 287.034 60.6152C286.694 60.7652 286.304 60.8852 285.864 60.9852C285.424 61.0852 284.974 61.1552 284.484 61.2252C283.994 61.2952 283.504 61.3252 283.014 61.3252C281.524 61.3252 280.244 61.1252 279.184 60.7352C278.124 60.3352 277.254 59.7452 276.574 58.9452C275.894 58.1352 275.394 57.1352 275.094 55.9052C274.794 54.6852 274.634 53.2452 274.634 51.5852V34.7952H270.604C270.284 34.7952 270.034 34.6352 269.844 34.2852C269.644 33.9452 269.564 33.3952 269.564 32.6252C269.564 32.2252 269.584 31.8852 269.644 31.6052C269.694 31.3352 269.764 31.1052 269.854 30.9152C269.944 30.7452 270.054 30.6052 270.194 30.5352C270.334 30.4552 270.484 30.4252 270.654 30.4252H274.654V23.5952C274.654 23.4452 274.684 23.3152 274.764 23.1852C274.844 23.0552 274.974 22.9452 275.174 22.8452C275.374 22.7452 275.644 22.6852 275.994 22.6352C276.334 22.5952 276.754 22.5652 277.274 22.5652C277.804 22.5652 278.244 22.5852 278.584 22.6352C278.924 22.6752 279.194 22.7452 279.374 22.8452C279.574 22.9452 279.704 23.0552 279.784 23.1852C279.874 23.3152 279.914 23.4452 279.914 23.5952V30.4252H287.284C287.444 30.4252 287.604 30.4552 287.734 30.5352C287.854 30.6152 287.974 30.7452 288.064 30.9152C288.164 31.1052 288.234 31.3252 288.274 31.6052C288.314 31.8852 288.344 32.2252 288.344 32.6252C288.344 33.3852 288.254 33.9452 288.064 34.2852C287.864 34.6352 287.614 34.7952 287.304 34.7952H279.934V50.8152C279.934 52.7952 280.224 54.2952 280.804 55.3052C281.394 56.3052 282.434 56.8152 283.954 56.8152C284.444 56.8152 284.884 56.7652 285.264 56.6752C285.644 56.5752 285.994 56.4652 286.284 56.3652C286.574 56.2552 286.844 56.1552 287.044 56.0652C287.264 55.9652 287.444 55.9252 287.624 55.9252C287.734 55.9252 287.834 55.9452 287.934 56.0052C288.034 56.0552 288.094 56.1552 288.154 56.3152C288.204 56.4652 288.264 56.6652 288.294 56.9152C288.274 57.1752 288.304 57.4852 288.304 57.8652ZM315.054 60.1752C315.054 60.4252 314.964 60.6252 314.794 60.7452C314.634 60.8752 314.394 60.9752 314.094 61.0352C313.784 61.1052 313.354 61.1352 312.784 61.1352C312.224 61.1352 311.784 61.1052 311.454 61.0352C311.124 60.9652 310.884 60.8752 310.734 60.7452C310.584 60.6252 310.514 60.4252 310.514 60.1752V57.2952C309.254 58.6352 307.854 59.6852 306.314 60.4252C304.774 61.1652 303.144 61.5452 301.424 61.5452C299.914 61.5452 298.534 61.3452 297.314 60.9452C296.094 60.5552 295.044 59.9852 294.184 59.2452C293.324 58.4952 292.644 57.5752 292.164 56.4952C291.694 55.4052 291.454 54.1752 291.454 52.7952C291.454 51.1752 291.784 49.7752 292.434 48.5752C293.104 47.3852 294.044 46.3952 295.274 45.6152C296.504 44.8152 298.024 44.2352 299.804 43.8352C301.594 43.4452 303.604 43.2452 305.834 43.2452H309.784V41.0152C309.784 39.9052 309.664 38.9252 309.434 38.0752C309.194 37.2252 308.824 36.5152 308.304 35.9652C307.784 35.3952 307.104 34.9752 306.274 34.6752C305.444 34.3952 304.424 34.2452 303.214 34.2452C301.904 34.2452 300.754 34.3952 299.714 34.7052C298.674 35.0252 297.774 35.3552 297.004 35.7252C296.224 36.0952 295.574 36.4352 295.054 36.7452C294.534 37.0552 294.154 37.2052 293.884 37.2052C293.724 37.2052 293.564 37.1652 293.434 37.0852C293.304 36.9952 293.194 36.8652 293.094 36.6952C293.004 36.5352 292.934 36.3152 292.884 36.0452C292.844 35.7852 292.814 35.4852 292.814 35.1752C292.814 34.6452 292.854 34.2152 292.934 33.9152C293.014 33.6052 293.184 33.3152 293.474 33.0352C293.754 32.7652 294.244 32.4352 294.954 32.0652C295.654 31.6952 296.454 31.3552 297.374 31.0452C298.294 30.7352 299.294 30.4852 300.384 30.2852C301.464 30.0752 302.564 29.9752 303.674 29.9752C305.734 29.9752 307.484 30.2152 308.934 30.6852C310.384 31.1552 311.544 31.8352 312.444 32.7452C313.334 33.6452 313.994 34.7752 314.394 36.1152C314.794 37.4552 315.004 39.0152 315.004 40.7952V60.1752H315.054ZM309.814 47.0652H305.314C303.864 47.0652 302.614 47.1852 301.544 47.4252C300.484 47.6752 299.604 48.0352 298.894 48.5152C298.194 48.9952 297.674 49.5752 297.344 50.2352C297.014 50.9052 296.854 51.6752 296.854 52.5452C296.854 54.0352 297.324 55.2252 298.274 56.1052C299.224 56.9852 300.554 57.4352 302.254 57.4352C303.634 57.4352 304.914 57.0852 306.104 56.3752C307.284 55.6752 308.524 54.5952 309.814 53.1552V47.0652ZM361.494 31.5752C361.494 33.6452 361.154 35.5052 360.474 37.1652C359.804 38.8252 358.814 40.2352 357.554 41.4152C356.294 42.5852 354.734 43.4852 352.894 44.1252C351.064 44.7552 348.864 45.0852 346.304 45.0852H341.624V59.9552C341.624 60.1152 341.574 60.2752 341.484 60.4052C341.384 60.5352 341.234 60.6352 341.034 60.7152C340.824 60.7952 340.554 60.8452 340.194 60.9052C339.844 60.9552 339.414 60.9952 338.874 60.9952C338.344 60.9952 337.904 60.9652 337.544 60.9052C337.194 60.8552 336.914 60.7952 336.704 60.7152C336.484 60.6352 336.334 60.5452 336.254 60.4052C336.164 60.2752 336.124 60.1252 336.124 59.9552V21.8552C336.124 21.0052 336.344 20.3952 336.784 20.0352C337.234 19.6752 337.734 19.4952 338.284 19.4952H347.134C348.024 19.4952 348.874 19.5252 349.694 19.6052C350.524 19.6852 351.494 19.8452 352.604 20.0852C353.724 20.3352 354.864 20.7952 356.024 21.4552C357.174 22.1352 358.164 22.9452 358.974 23.9252C359.784 24.9052 360.404 26.0352 360.834 27.3252C361.274 28.5952 361.494 30.0252 361.494 31.5752ZM355.714 32.0152C355.714 30.3352 355.394 28.9352 354.764 27.8152C354.144 26.6852 353.354 25.8452 352.434 25.2852C351.504 24.7252 350.564 24.3852 349.574 24.2352C348.584 24.0852 347.624 24.0052 346.684 24.0052H341.604V40.5652H346.554C348.214 40.5652 349.594 40.3552 350.684 39.9352C351.784 39.5052 352.704 38.9252 353.454 38.1552C354.194 37.4052 354.764 36.4952 355.144 35.4452C355.524 34.4052 355.714 33.2652 355.714 32.0152ZM392.304 45.2952C392.304 47.6352 392.004 49.7952 391.374 51.7552C390.764 53.7252 389.834 55.4252 388.614 56.8552C387.394 58.2852 385.854 59.3952 384.014 60.1852C382.174 60.9852 380.034 61.3852 377.624 61.3852C375.264 61.3852 373.204 61.0252 371.444 60.3252C369.694 59.6252 368.224 58.6052 367.054 57.2652C365.884 55.9252 365.014 54.2952 364.444 52.3752C363.864 50.4652 363.584 48.2852 363.584 45.8752C363.584 43.5352 363.884 41.3752 364.484 39.4152C365.094 37.4452 366.004 35.7452 367.234 34.3152C368.454 32.8852 369.994 31.7852 371.824 31.0052C373.654 30.2052 375.794 29.8152 378.234 29.8152C380.594 29.8152 382.654 30.1652 384.414 30.8752C386.164 31.5752 387.634 32.5952 388.804 33.9352C389.984 35.2752 390.854 36.9052 391.444 38.8152C392.014 40.7352 392.304 42.8852 392.304 45.2952ZM386.754 45.6452C386.754 44.0952 386.604 42.6252 386.314 41.2452C386.034 39.8652 385.554 38.6552 384.894 37.6052C384.234 36.5552 383.334 35.7452 382.214 35.1352C381.084 34.5252 379.674 34.2152 377.994 34.2152C376.434 34.2152 375.104 34.4952 373.984 35.0552C372.874 35.5952 371.944 36.3852 371.224 37.3952C370.494 38.4052 369.964 39.6052 369.614 40.9952C369.264 42.3752 369.094 43.8852 369.094 45.5252C369.094 47.0952 369.234 48.5752 369.514 49.9552C369.794 51.3352 370.274 52.5452 370.954 53.5752C371.614 54.6052 372.524 55.4252 373.644 56.0352C374.774 56.6452 376.184 56.9352 377.864 56.9352C379.404 56.9352 380.724 56.6652 381.854 56.1052C382.984 55.5452 383.914 54.7752 384.634 53.7752C385.364 52.7852 385.894 51.5852 386.234 50.2052C386.584 48.8252 386.754 47.3152 386.754 45.6452ZM402.854 59.9852C402.854 60.1452 402.814 60.3052 402.724 60.4052C402.634 60.5252 402.494 60.6252 402.314 60.7152C402.114 60.8052 401.854 60.8652 401.514 60.9152C401.164 60.9552 400.734 60.9852 400.194 60.9852C399.694 60.9852 399.264 60.9652 398.924 60.9152C398.584 60.8752 398.314 60.8052 398.114 60.7152C397.904 60.6252 397.764 60.5252 397.704 60.4052C397.624 60.2952 397.584 60.1452 397.584 59.9852V17.3452C397.584 17.1752 397.624 17.0152 397.704 16.8952C397.774 16.7652 397.914 16.6552 398.114 16.5652C398.314 16.4852 398.584 16.4252 398.924 16.3752C399.274 16.3352 399.694 16.3052 400.194 16.3052C400.724 16.3052 401.164 16.3252 401.514 16.3752C401.854 16.4152 402.114 16.4852 402.314 16.5652C402.504 16.6552 402.644 16.7652 402.724 16.8952C402.814 17.0152 402.854 17.1652 402.854 17.3452V59.9852ZM428.434 52.1652C428.434 53.6352 428.164 54.9452 427.614 56.0852C427.074 57.2352 426.294 58.2052 425.294 58.9952C424.304 59.7752 423.104 60.3752 421.724 60.7852C420.344 61.1852 418.824 61.3952 417.164 61.3952C416.154 61.3952 415.174 61.3052 414.244 61.1552C413.314 60.9952 412.494 60.7852 411.764 60.5452C411.024 60.3052 410.404 60.0452 409.894 59.7852C409.394 59.5152 409.014 59.2752 408.784 59.0652C408.544 58.8452 408.384 58.5552 408.274 58.1752C408.164 57.7952 408.114 57.2752 408.114 56.6052C408.114 56.2052 408.134 55.8652 408.184 55.5852C408.224 55.3152 408.284 55.0952 408.344 54.9252C408.414 54.7552 408.494 54.6352 408.614 54.5552C408.724 54.4752 408.864 54.4452 409.004 54.4452C409.244 54.4452 409.594 54.5852 410.054 54.8852C410.514 55.1652 411.064 55.4852 411.744 55.8252C412.404 56.1652 413.204 56.4752 414.114 56.7652C415.024 57.0552 416.084 57.2052 417.274 57.2052C418.164 57.2052 418.974 57.1052 419.704 56.9252C420.424 56.7252 421.054 56.4452 421.584 56.0752C422.104 55.7052 422.524 55.2252 422.804 54.6552C423.094 54.0752 423.244 53.3952 423.244 52.6052C423.244 51.7952 423.034 51.1152 422.624 50.5652C422.214 50.0052 421.654 49.5152 420.974 49.0952C420.284 48.6752 419.524 48.2852 418.674 47.9652C417.824 47.6352 416.944 47.2852 416.034 46.9352C415.134 46.5652 414.244 46.1652 413.384 45.7052C412.524 45.2452 411.754 44.6952 411.074 44.0252C410.384 43.3652 409.844 42.5752 409.424 41.6652C409.014 40.7552 408.804 39.6652 408.804 38.3752C408.804 37.2552 409.024 36.1752 409.454 35.1352C409.894 34.1052 410.544 33.1952 411.414 32.4252C412.284 31.6552 413.374 31.0352 414.684 30.5652C415.994 30.0952 417.524 29.8552 419.274 29.8552C420.034 29.8552 420.794 29.9252 421.574 30.0552C422.334 30.1752 423.024 30.3352 423.644 30.5352C424.264 30.7152 424.784 30.9252 425.224 31.1552C425.664 31.3752 425.984 31.5652 426.214 31.7452C426.434 31.9152 426.584 32.0652 426.664 32.1952C426.744 32.3252 426.794 32.4652 426.824 32.6352C426.854 32.7852 426.874 32.9852 426.914 33.2252C426.944 33.4552 426.964 33.7452 426.964 34.0852C426.964 34.4452 426.944 34.7652 426.914 35.0252C426.884 35.2952 426.834 35.5152 426.764 35.6752C426.684 35.8452 426.604 35.9652 426.494 36.0452C426.384 36.1252 426.264 36.1552 426.144 36.1552C425.944 36.1552 425.674 36.0452 425.304 35.8052C424.944 35.5752 424.474 35.3252 423.914 35.0552C423.334 34.7952 422.664 34.5452 421.874 34.3052C421.104 34.0752 420.214 33.9552 419.214 33.9552C418.324 33.9552 417.534 34.0552 416.854 34.2652C416.174 34.4752 415.614 34.7552 415.174 35.1252C414.734 35.4952 414.414 35.9452 414.184 36.4552C413.964 36.9652 413.854 37.5152 413.854 38.1152C413.854 38.9452 414.064 39.6452 414.484 40.2052C414.904 40.7752 415.464 41.2652 416.154 41.6852C416.834 42.1152 417.604 42.4952 418.474 42.8352C419.354 43.1752 420.234 43.5252 421.144 43.8852C422.044 44.2552 422.944 44.6552 423.824 45.1052C424.704 45.5552 425.494 46.0852 426.174 46.7252C426.854 47.3652 427.394 48.1352 427.804 49.0252C428.214 49.8652 428.434 50.9252 428.434 52.1652ZM457.284 59.9452C457.284 60.1052 457.244 60.2652 457.164 60.3952C457.074 60.5252 456.934 60.6252 456.724 60.7152C456.514 60.8052 456.244 60.8652 455.874 60.9152C455.514 60.9552 455.054 60.9852 454.504 60.9852C453.934 60.9852 453.454 60.9652 453.084 60.9352C452.714 60.9052 452.394 60.8452 452.144 60.7852C451.884 60.7052 451.674 60.5952 451.514 60.4552C451.364 60.3252 451.224 60.1452 451.094 59.9652L438.974 44.0752V60.0052C438.974 60.1652 438.934 60.3252 438.844 60.4252C438.754 60.5452 438.614 60.6452 438.434 60.7352C438.234 60.8252 437.974 60.8852 437.644 60.9352C437.294 60.9752 436.864 61.0052 436.324 61.0052C435.824 61.0052 435.394 60.9852 435.054 60.9352C434.714 60.8952 434.444 60.8252 434.244 60.7352C434.034 60.6452 433.894 60.5452 433.834 60.4252C433.754 60.3152 433.714 60.1652 433.714 60.0052V17.3452C433.714 17.1752 433.754 17.0152 433.834 16.8952C433.904 16.7652 434.044 16.6552 434.244 16.5652C434.444 16.4852 434.714 16.4252 435.054 16.3752C435.404 16.3352 435.824 16.3052 436.324 16.3052C436.854 16.3052 437.294 16.3252 437.644 16.3752C437.984 16.4152 438.244 16.4852 438.434 16.5652C438.624 16.6552 438.764 16.7652 438.844 16.8952C438.934 17.0152 438.974 17.1652 438.974 17.3452V43.3152L449.824 31.3852C449.984 31.1652 450.174 30.9952 450.364 30.8552C450.554 30.7252 450.774 30.6052 451.054 30.5052C451.314 30.4052 451.634 30.3552 451.994 30.3152C452.354 30.2852 452.794 30.2652 453.304 30.2652C453.834 30.2652 454.284 30.2852 454.644 30.3152C455.004 30.3452 455.294 30.3952 455.524 30.4652C455.744 30.5452 455.904 30.6352 456.004 30.7552C456.094 30.8652 456.144 31.0252 456.144 31.2152C456.144 31.4752 456.064 31.7252 455.934 31.9752C455.794 32.2352 455.564 32.5352 455.244 32.8652L444.844 43.2752L456.524 58.4252C456.794 58.7852 456.994 59.0752 457.114 59.3052C457.234 59.5452 457.284 59.7552 457.284 59.9452ZM484.044 60.0152C484.044 60.2652 483.954 60.4652 483.784 60.5852C483.624 60.7152 483.384 60.8152 483.084 60.8752C482.774 60.9452 482.344 60.9752 481.774 60.9752C481.214 60.9752 480.774 60.9452 480.444 60.8752C480.114 60.8052 479.874 60.7152 479.724 60.5852C479.574 60.4652 479.504 60.2652 479.504 60.0152V57.1352C478.244 58.4752 476.844 59.5252 475.294 60.2652C473.754 61.0052 472.124 61.3852 470.404 61.3852C468.894 61.3852 467.514 61.1852 466.294 60.7852C465.074 60.3952 464.024 59.8252 463.164 59.0852C462.304 58.3352 461.624 57.4152 461.144 56.3352C460.674 55.2452 460.434 54.0152 460.434 52.6352C460.434 51.0152 460.764 49.6152 461.414 48.4152C462.074 47.2252 463.024 46.2352 464.254 45.4552C465.484 44.6552 467.004 44.0752 468.784 43.6752C470.574 43.2852 472.584 43.0852 474.824 43.0852H478.774V40.8652C478.774 39.7552 478.654 38.7752 478.424 37.9252C478.184 37.0752 477.814 36.3652 477.294 35.8152C476.774 35.2452 476.094 34.8252 475.264 34.5252C474.434 34.2452 473.414 34.1052 472.204 34.1052C470.894 34.1052 469.744 34.2552 468.704 34.5652C467.664 34.8852 466.764 35.2152 465.994 35.5852C465.214 35.9552 464.564 36.2952 464.044 36.6052C463.524 36.9152 463.144 37.0652 462.874 37.0652C462.714 37.0652 462.554 37.0252 462.424 36.9452C462.294 36.8552 462.184 36.7252 462.084 36.5552C461.994 36.3952 461.924 36.1752 461.874 35.9052C461.834 35.6452 461.804 35.3452 461.804 35.0352C461.804 34.5052 461.844 34.0752 461.924 33.7752C462.004 33.4752 462.174 33.1752 462.464 32.8952C462.744 32.6252 463.234 32.2952 463.944 31.9252C464.644 31.5552 465.444 31.2152 466.364 30.9052C467.284 30.6052 468.284 30.3452 469.374 30.1452C470.454 29.9352 471.554 29.8352 472.664 29.8352C474.724 29.8352 476.474 30.0752 477.924 30.5452C479.374 31.0152 480.534 31.6952 481.434 32.6052C482.324 33.5052 482.984 34.6352 483.384 35.9752C483.784 37.3152 483.994 38.8752 483.994 40.6552V60.0152H484.044ZM478.804 46.8952H474.304C472.854 46.8952 471.604 47.0152 470.534 47.2552C469.474 47.5052 468.594 47.8652 467.884 48.3452C467.184 48.8252 466.664 49.4052 466.334 50.0652C466.004 50.7452 465.844 51.5052 465.844 52.3752C465.844 53.8652 466.314 55.0552 467.264 55.9352C468.214 56.8152 469.544 57.2652 471.244 57.2652C472.624 57.2652 473.904 56.9152 475.094 56.2052C476.274 55.5052 477.514 54.4252 478.804 52.9852V46.8952ZM35.5138 24.5952C40.9938 21.1752 46.8538 20.6252 48.5638 23.3652C50.2738 26.1052 47.1938 31.1252 41.7138 34.5452C36.2338 37.9652 30.3738 38.5152 28.6638 35.7752C26.9538 33.0352 30.0338 28.0152 35.5138 24.5952ZM93.7038 62.3752C110.984 59.9152 124.444 47.5552 133.534 33.4752C136.014 29.6352 140.114 32.4852 138.144 36.2652C121.574 68.1052 91.3738 89.8852 55.1238 69.6052C44.3738 63.5952 29.4138 54.1652 11.6238 56.1852C-7.54622 59.0452 -0.446222 47.7852 14.8638 34.7052C15.0138 34.5852 15.2438 34.5552 15.0738 34.9152C13.6038 38.4852 13.4838 41.7752 15.0338 44.2652C19.0838 50.7552 32.9738 49.4552 45.9638 41.3552C47.2738 40.5352 48.5338 39.6752 49.7238 38.7952C52.8838 36.5252 55.4138 34.1552 57.3238 31.7852C62.6838 25.5452 64.8138 19.0752 62.1938 14.8752C60.2238 11.7152 55.9138 10.4052 50.5038 10.8252C49.2938 10.9152 50.7738 9.89516 51.6138 9.46516C71.6338 -1.47484 86.8338 -4.57485 73.1438 16.5852C59.4238 37.4152 64.7038 66.5152 93.7038 62.3752Z" fill="#E41F13"/>
</svg>
